{
    "asset" : {
        "generator" : "Khronos glTF Blender I/O v3.2.43",
        "version" : "2.0"
    },
    "scene" : 0,
    "scenes" : [
        {
            "name" : "Scene",
            "nodes" : [
                0
            ]
        }
    ],
    "nodes" : [
        {
            "mesh" : 0,
            "name" : "Object.3",
            "rotation" : [
                -0.003114474005997181,
                0.7070999145507812,
                0.003114474005997181,
                0.707099974155426
            ],
            "scale" : [
                0.031212924048304558,
                0.031212924048304558,
                0.031212924048304558
            ],
            "translation" : [
                0.001752430573105812,
                -0.1638103723526001,
                0.0043466538190841675
            ]
        }
    ],
    "materials" : [
        {
            "doubleSided" : true,
            "name" : "Mat_0",
            "pbrMetallicRoughness" : {
                "baseColorTexture" : {
                    "index" : 0
                },
                "metallicRoughnessTexture" : {
                    "index" : 1
                }
            }
        }
    ],
    "meshes" : [
        {
            "name" : "Object.3",
            "primitives" : [
                {
                    "attributes" : {
                        "POSITION" : 0,
                        "NORMAL" : 1,
                        "TEXCOORD_0" : 2
                    },
                    "indices" : 3,
                    "material" : 0
                }
            ]
        }
    ],
    "textures" : [
        {
            "sampler" : 0,
            "source" : 0
        },
        {
            "sampler" : 0,
            "source" : 1
        }
    ],
    "images" : [
        {
            "mimeType" : "image/png",
            "name" : "Sword",
            "uri" : "Sword.png"
        },
        {
            "mimeType" : "image/png",
            "name" : "Sword_Metal",
            "uri" : "Sword_Metal.png"
        }
    ],
    "accessors" : [
        {
            "bufferView" : 0,
            "componentType" : 5126,
            "count" : 1055,
            "max" : [
                3.722172975540161,
                31.878765106201172,
                0.9968739748001099
            ],
            "min" : [
                -3.722172975540161,
                9.999999974752427e-07,
                -0.9968739748001099
            ],
            "type" : "VEC3"
        },
        {
            "bufferView" : 1,
            "componentType" : 5126,
            "count" : 1055,
            "type" : "VEC3"
        },
        {
            "bufferView" : 2,
            "componentType" : 5126,
            "count" : 1055,
            "type" : "VEC2"
        },
        {
            "bufferView" : 3,
            "componentType" : 5123,
            "count" : 1086,
            "type" : "SCALAR"
        }
    ],
    "bufferViews" : [
        {
            "buffer" : 0,
            "byteLength" : 12660,
            "byteOffset" : 0
        },
        {
            "buffer" : 0,
            "byteLength" : 12660,
            "byteOffset" : 12660
        },
        {
            "buffer" : 0,
            "byteLength" : 8440,
            "byteOffset" : 25320
        },
        {
            "buffer" : 0,
            "byteLength" : 2172,
            "byteOffset" : 33760
        }
    ],
    "samplers" : [
        {
            "magFilter" : 9729,
            "minFilter" : 9987
        }
    ],
    "buffers" : [
        {
            "byteLength" : 35932,
            "uri" : "Sword.bin"
        }
    ]
}
